<mxfile host="app.diagrams.net" modified="2023-08-18T21:16:09.214Z" agent="Mozilla/5.0 (Windows NT 10.0; Win64; x64) AppleWebKit/537.36 (KHTML, like Gecko) Chrome/115.0.0.0 Safari/537.36" etag="F8laPwE_OMMmVW_7jvXh" version="21.6.8" type="device">
  <diagram name="Page-1" id="-Qt2ztKeV2bImstE-vtO">
    <mxGraphModel dx="1434" dy="758" grid="1" gridSize="10" guides="1" tooltips="1" connect="1" arrows="1" fold="1" page="1" pageScale="1" pageWidth="827" pageHeight="1169" math="0" shadow="0">
      <root>
        <mxCell id="0" />
        <mxCell id="1" parent="0" />
        <mxCell id="Wdemls4XMApZAzFT3hwG-3" value="Clinical" style="rounded=1;whiteSpace=wrap;html=1;" parent="1" vertex="1">
          <mxGeometry x="240" y="120" width="120" height="60" as="geometry" />
        </mxCell>
        <mxCell id="Wdemls4XMApZAzFT3hwG-4" value="Demographic" style="rounded=1;whiteSpace=wrap;html=1;" parent="1" vertex="1">
          <mxGeometry x="370" y="120" width="120" height="60" as="geometry" />
        </mxCell>
        <mxCell id="Wdemls4XMApZAzFT3hwG-5" value="Technical" style="rounded=1;whiteSpace=wrap;html=1;" parent="1" vertex="1">
          <mxGeometry x="500" y="120" width="120" height="60" as="geometry" />
        </mxCell>
        <mxCell id="Wdemls4XMApZAzFT3hwG-6" value="Anthropometry" style="rounded=1;whiteSpace=wrap;html=1;" parent="1" vertex="1">
          <mxGeometry x="630" y="120" width="120" height="60" as="geometry" />
        </mxCell>
        <mxCell id="Wdemls4XMApZAzFT3hwG-7" value="Comorbidities" style="rounded=1;whiteSpace=wrap;html=1;" parent="1" vertex="1">
          <mxGeometry x="760" y="120" width="120" height="60" as="geometry" />
        </mxCell>
        <mxCell id="Wdemls4XMApZAzFT3hwG-8" value="Treatment" style="rounded=1;whiteSpace=wrap;html=1;" parent="1" vertex="1">
          <mxGeometry x="890" y="120" width="120" height="60" as="geometry" />
        </mxCell>
        <mxCell id="Wdemls4XMApZAzFT3hwG-9" value="Biochemistry" style="rounded=1;whiteSpace=wrap;html=1;" parent="1" vertex="1">
          <mxGeometry x="1020" y="120" width="120" height="60" as="geometry" />
        </mxCell>
        <mxCell id="Wdemls4XMApZAzFT3hwG-10" value="Fitness Level" style="rounded=1;whiteSpace=wrap;html=1;" parent="1" vertex="1">
          <mxGeometry x="1150" y="120" width="120" height="60" as="geometry" />
        </mxCell>
        <mxCell id="Wdemls4XMApZAzFT3hwG-12" value="" style="endArrow=none;dashed=1;html=1;dashPattern=1 3;strokeWidth=2;rounded=0;" parent="1" edge="1">
          <mxGeometry width="50" height="50" relative="1" as="geometry">
            <mxPoint x="1320" y="200" as="sourcePoint" />
            <mxPoint x="40" y="200" as="targetPoint" />
          </mxGeometry>
        </mxCell>
        <mxCell id="Wdemls4XMApZAzFT3hwG-14" value="&lt;font style=&quot;font-size: 24px;&quot;&gt;Groups&lt;/font&gt;" style="text;html=1;strokeColor=none;fillColor=none;align=center;verticalAlign=middle;whiteSpace=wrap;rounded=0;fontSize=24;" parent="1" vertex="1">
          <mxGeometry x="50" y="135" width="60" height="30" as="geometry" />
        </mxCell>
        <mxCell id="Wdemls4XMApZAzFT3hwG-15" value="&lt;font style=&quot;font-size: 24px;&quot;&gt;Decision Tree&lt;br&gt;&lt;/font&gt;" style="text;html=1;strokeColor=none;fillColor=none;align=left;verticalAlign=middle;whiteSpace=wrap;rounded=0;fontSize=24;" parent="1" vertex="1">
          <mxGeometry x="40" y="240" width="60" height="30" as="geometry" />
        </mxCell>
        <mxCell id="Wdemls4XMApZAzFT3hwG-16" value="" style="endArrow=classic;html=1;rounded=0;" parent="1" source="Wdemls4XMApZAzFT3hwG-3" edge="1">
          <mxGeometry width="50" height="50" relative="1" as="geometry">
            <mxPoint x="660" y="370" as="sourcePoint" />
            <mxPoint x="300" y="230" as="targetPoint" />
          </mxGeometry>
        </mxCell>
        <mxCell id="Wdemls4XMApZAzFT3hwG-17" value="&lt;h2 style=&quot;border-color: var(--border-color);&quot;&gt;&lt;font style=&quot;border-color: var(--border-color);&quot; color=&quot;#ff0000&quot;&gt;X&lt;/font&gt;&lt;/h2&gt;" style="rounded=0;whiteSpace=wrap;html=1;" parent="1" vertex="1">
          <mxGeometry x="370" y="230" width="120" height="60" as="geometry" />
        </mxCell>
        <mxCell id="Wdemls4XMApZAzFT3hwG-18" value="&lt;h2&gt;&lt;font color=&quot;#ff0000&quot;&gt;X&lt;/font&gt;&lt;/h2&gt;" style="rounded=0;whiteSpace=wrap;html=1;" parent="1" vertex="1">
          <mxGeometry x="500" y="230" width="120" height="60" as="geometry" />
        </mxCell>
        <mxCell id="Wdemls4XMApZAzFT3hwG-19" value="&lt;h2 style=&quot;border-color: var(--border-color);&quot;&gt;&lt;font style=&quot;border-color: var(--border-color);&quot; color=&quot;#ff0000&quot;&gt;X&lt;/font&gt;&lt;/h2&gt;" style="rounded=0;whiteSpace=wrap;html=1;" parent="1" vertex="1">
          <mxGeometry x="630" y="230" width="120" height="60" as="geometry" />
        </mxCell>
        <mxCell id="Wdemls4XMApZAzFT3hwG-24" value="" style="endArrow=classic;html=1;rounded=0;" parent="1" source="Wdemls4XMApZAzFT3hwG-4" target="Wdemls4XMApZAzFT3hwG-17" edge="1">
          <mxGeometry width="50" height="50" relative="1" as="geometry">
            <mxPoint x="660" y="370" as="sourcePoint" />
            <mxPoint x="710" y="320" as="targetPoint" />
          </mxGeometry>
        </mxCell>
        <mxCell id="Wdemls4XMApZAzFT3hwG-25" value="" style="endArrow=classic;html=1;rounded=0;" parent="1" source="Wdemls4XMApZAzFT3hwG-5" target="Wdemls4XMApZAzFT3hwG-18" edge="1">
          <mxGeometry width="50" height="50" relative="1" as="geometry">
            <mxPoint x="440" y="190" as="sourcePoint" />
            <mxPoint x="440" y="240" as="targetPoint" />
          </mxGeometry>
        </mxCell>
        <mxCell id="Wdemls4XMApZAzFT3hwG-26" value="" style="endArrow=classic;html=1;rounded=0;" parent="1" source="Wdemls4XMApZAzFT3hwG-6" target="Wdemls4XMApZAzFT3hwG-19" edge="1">
          <mxGeometry width="50" height="50" relative="1" as="geometry">
            <mxPoint x="570" y="190" as="sourcePoint" />
            <mxPoint x="570" y="240" as="targetPoint" />
          </mxGeometry>
        </mxCell>
        <mxCell id="Wdemls4XMApZAzFT3hwG-27" value="" style="endArrow=classic;html=1;rounded=0;" parent="1" source="Wdemls4XMApZAzFT3hwG-7" edge="1">
          <mxGeometry width="50" height="50" relative="1" as="geometry">
            <mxPoint x="700" y="190" as="sourcePoint" />
            <mxPoint x="820" y="230" as="targetPoint" />
          </mxGeometry>
        </mxCell>
        <mxCell id="Wdemls4XMApZAzFT3hwG-28" value="" style="endArrow=classic;html=1;rounded=0;" parent="1" source="Wdemls4XMApZAzFT3hwG-8" edge="1">
          <mxGeometry width="50" height="50" relative="1" as="geometry">
            <mxPoint x="830" y="190" as="sourcePoint" />
            <mxPoint x="950" y="230" as="targetPoint" />
          </mxGeometry>
        </mxCell>
        <mxCell id="Wdemls4XMApZAzFT3hwG-29" value="" style="endArrow=classic;html=1;rounded=0;" parent="1" source="Wdemls4XMApZAzFT3hwG-9" edge="1">
          <mxGeometry width="50" height="50" relative="1" as="geometry">
            <mxPoint x="960" y="190" as="sourcePoint" />
            <mxPoint x="1080" y="230" as="targetPoint" />
          </mxGeometry>
        </mxCell>
        <mxCell id="Wdemls4XMApZAzFT3hwG-30" value="" style="endArrow=classic;html=1;rounded=0;" parent="1" source="Wdemls4XMApZAzFT3hwG-10" edge="1">
          <mxGeometry width="50" height="50" relative="1" as="geometry">
            <mxPoint x="1090" y="190" as="sourcePoint" />
            <mxPoint x="1210" y="230" as="targetPoint" />
          </mxGeometry>
        </mxCell>
        <mxCell id="Wdemls4XMApZAzFT3hwG-40" value="" style="endArrow=none;dashed=1;html=1;dashPattern=1 3;strokeWidth=2;rounded=0;" parent="1" edge="1">
          <mxGeometry width="50" height="50" relative="1" as="geometry">
            <mxPoint x="1320" y="330" as="sourcePoint" />
            <mxPoint x="40" y="330" as="targetPoint" />
          </mxGeometry>
        </mxCell>
        <mxCell id="Wdemls4XMApZAzFT3hwG-42" value="" style="endArrow=none;html=1;rounded=0;" parent="1" edge="1">
          <mxGeometry width="50" height="50" relative="1" as="geometry">
            <mxPoint x="300" y="400" as="sourcePoint" />
            <mxPoint x="1210" y="400" as="targetPoint" />
          </mxGeometry>
        </mxCell>
        <mxCell id="Wdemls4XMApZAzFT3hwG-43" value="" style="endArrow=classic;html=1;rounded=0;" parent="1" target="KJ-lzjBJcKyRDd2qdMHR-39" edge="1">
          <mxGeometry width="50" height="50" relative="1" as="geometry">
            <mxPoint x="760" y="400" as="sourcePoint" />
            <mxPoint x="760" y="440" as="targetPoint" />
          </mxGeometry>
        </mxCell>
        <mxCell id="Wdemls4XMApZAzFT3hwG-45" value="" style="endArrow=none;html=1;rounded=0;" parent="1" edge="1">
          <mxGeometry width="50" height="50" relative="1" as="geometry">
            <mxPoint x="300" y="310" as="sourcePoint" />
            <mxPoint x="300" y="400" as="targetPoint" />
          </mxGeometry>
        </mxCell>
        <mxCell id="Wdemls4XMApZAzFT3hwG-46" value="" style="endArrow=none;html=1;rounded=0;" parent="1" edge="1">
          <mxGeometry width="50" height="50" relative="1" as="geometry">
            <mxPoint x="429.5" y="290" as="sourcePoint" />
            <mxPoint x="429.5" y="400" as="targetPoint" />
          </mxGeometry>
        </mxCell>
        <mxCell id="Wdemls4XMApZAzFT3hwG-47" value="" style="endArrow=none;html=1;rounded=0;" parent="1" edge="1">
          <mxGeometry width="50" height="50" relative="1" as="geometry">
            <mxPoint x="559.5" y="290" as="sourcePoint" />
            <mxPoint x="559.5" y="400" as="targetPoint" />
          </mxGeometry>
        </mxCell>
        <mxCell id="Wdemls4XMApZAzFT3hwG-48" value="" style="endArrow=none;html=1;rounded=0;" parent="1" edge="1">
          <mxGeometry width="50" height="50" relative="1" as="geometry">
            <mxPoint x="820" y="310" as="sourcePoint" />
            <mxPoint x="819.5" y="400" as="targetPoint" />
          </mxGeometry>
        </mxCell>
        <mxCell id="Wdemls4XMApZAzFT3hwG-49" value="" style="endArrow=none;html=1;rounded=0;" parent="1" edge="1">
          <mxGeometry width="50" height="50" relative="1" as="geometry">
            <mxPoint x="689.5" y="290" as="sourcePoint" />
            <mxPoint x="689.5" y="400" as="targetPoint" />
          </mxGeometry>
        </mxCell>
        <mxCell id="Wdemls4XMApZAzFT3hwG-50" value="" style="endArrow=none;html=1;rounded=0;" parent="1" edge="1">
          <mxGeometry width="50" height="50" relative="1" as="geometry">
            <mxPoint x="950" y="310" as="sourcePoint" />
            <mxPoint x="949.5" y="400" as="targetPoint" />
          </mxGeometry>
        </mxCell>
        <mxCell id="Wdemls4XMApZAzFT3hwG-51" value="" style="endArrow=none;html=1;rounded=0;" parent="1" edge="1">
          <mxGeometry width="50" height="50" relative="1" as="geometry">
            <mxPoint x="1079.5" y="310" as="sourcePoint" />
            <mxPoint x="1079.5" y="400" as="targetPoint" />
          </mxGeometry>
        </mxCell>
        <mxCell id="Wdemls4XMApZAzFT3hwG-52" value="" style="endArrow=none;html=1;rounded=0;" parent="1" edge="1">
          <mxGeometry width="50" height="50" relative="1" as="geometry">
            <mxPoint x="1209.5" y="310" as="sourcePoint" />
            <mxPoint x="1209.5" y="400" as="targetPoint" />
          </mxGeometry>
        </mxCell>
        <mxCell id="Wdemls4XMApZAzFT3hwG-53" value="&lt;font style=&quot;font-size: 24px;&quot;&gt;Model&lt;br&gt;&lt;/font&gt;" style="text;html=1;strokeColor=none;fillColor=none;align=left;verticalAlign=middle;whiteSpace=wrap;rounded=0;fontSize=24;" parent="1" vertex="1">
          <mxGeometry x="50" y="440" width="140" height="50" as="geometry" />
        </mxCell>
        <mxCell id="KJ-lzjBJcKyRDd2qdMHR-13" value="" style="group" vertex="1" connectable="0" parent="1">
          <mxGeometry x="250" y="230" width="100" height="70" as="geometry" />
        </mxCell>
        <mxCell id="KJ-lzjBJcKyRDd2qdMHR-8" value="Root" style="whiteSpace=wrap;html=1;" vertex="1" parent="KJ-lzjBJcKyRDd2qdMHR-13">
          <mxGeometry x="29.166666666666668" width="41.66666666666667" height="21.538461538461537" as="geometry" />
        </mxCell>
        <mxCell id="KJ-lzjBJcKyRDd2qdMHR-9" value="Leaf" style="whiteSpace=wrap;html=1;" vertex="1" parent="KJ-lzjBJcKyRDd2qdMHR-13">
          <mxGeometry y="48.46153846153847" width="41.66666666666667" height="21.538461538461537" as="geometry" />
        </mxCell>
        <mxCell id="KJ-lzjBJcKyRDd2qdMHR-10" value="" style="edgeStyle=elbowEdgeStyle;elbow=vertical;html=1;rounded=1;curved=0;sourcePerimeterSpacing=0;targetPerimeterSpacing=0;startSize=6;endSize=6;" edge="1" parent="KJ-lzjBJcKyRDd2qdMHR-13" source="KJ-lzjBJcKyRDd2qdMHR-8" target="KJ-lzjBJcKyRDd2qdMHR-9">
          <mxGeometry relative="1" as="geometry" />
        </mxCell>
        <mxCell id="KJ-lzjBJcKyRDd2qdMHR-11" value="Leaf" style="whiteSpace=wrap;html=1;" vertex="1" parent="KJ-lzjBJcKyRDd2qdMHR-13">
          <mxGeometry x="58.333333333333336" y="48.46153846153847" width="41.66666666666667" height="21.538461538461537" as="geometry" />
        </mxCell>
        <mxCell id="KJ-lzjBJcKyRDd2qdMHR-12" value="" style="edgeStyle=elbowEdgeStyle;elbow=vertical;html=1;rounded=1;curved=0;sourcePerimeterSpacing=0;targetPerimeterSpacing=0;startSize=6;endSize=6;" edge="1" parent="KJ-lzjBJcKyRDd2qdMHR-13" source="KJ-lzjBJcKyRDd2qdMHR-8" target="KJ-lzjBJcKyRDd2qdMHR-11">
          <mxGeometry relative="1" as="geometry" />
        </mxCell>
        <mxCell id="KJ-lzjBJcKyRDd2qdMHR-15" value="" style="group" vertex="1" connectable="0" parent="1">
          <mxGeometry x="770" y="230" width="100" height="70" as="geometry" />
        </mxCell>
        <mxCell id="KJ-lzjBJcKyRDd2qdMHR-16" value="Root" style="whiteSpace=wrap;html=1;" vertex="1" parent="KJ-lzjBJcKyRDd2qdMHR-15">
          <mxGeometry x="29.166666666666668" width="41.66666666666667" height="21.538461538461537" as="geometry" />
        </mxCell>
        <mxCell id="KJ-lzjBJcKyRDd2qdMHR-17" value="Leaf" style="whiteSpace=wrap;html=1;" vertex="1" parent="KJ-lzjBJcKyRDd2qdMHR-15">
          <mxGeometry y="48.46153846153847" width="41.66666666666667" height="21.538461538461537" as="geometry" />
        </mxCell>
        <mxCell id="KJ-lzjBJcKyRDd2qdMHR-18" value="" style="edgeStyle=elbowEdgeStyle;elbow=vertical;html=1;rounded=1;curved=0;sourcePerimeterSpacing=0;targetPerimeterSpacing=0;startSize=6;endSize=6;" edge="1" parent="KJ-lzjBJcKyRDd2qdMHR-15" source="KJ-lzjBJcKyRDd2qdMHR-16" target="KJ-lzjBJcKyRDd2qdMHR-17">
          <mxGeometry relative="1" as="geometry" />
        </mxCell>
        <mxCell id="KJ-lzjBJcKyRDd2qdMHR-19" value="Leaf" style="whiteSpace=wrap;html=1;" vertex="1" parent="KJ-lzjBJcKyRDd2qdMHR-15">
          <mxGeometry x="58.333333333333336" y="48.46153846153847" width="41.66666666666667" height="21.538461538461537" as="geometry" />
        </mxCell>
        <mxCell id="KJ-lzjBJcKyRDd2qdMHR-20" value="" style="edgeStyle=elbowEdgeStyle;elbow=vertical;html=1;rounded=1;curved=0;sourcePerimeterSpacing=0;targetPerimeterSpacing=0;startSize=6;endSize=6;" edge="1" parent="KJ-lzjBJcKyRDd2qdMHR-15" source="KJ-lzjBJcKyRDd2qdMHR-16" target="KJ-lzjBJcKyRDd2qdMHR-19">
          <mxGeometry relative="1" as="geometry" />
        </mxCell>
        <mxCell id="KJ-lzjBJcKyRDd2qdMHR-21" value="" style="group" vertex="1" connectable="0" parent="1">
          <mxGeometry x="900" y="230" width="100" height="70" as="geometry" />
        </mxCell>
        <mxCell id="KJ-lzjBJcKyRDd2qdMHR-22" value="Root" style="whiteSpace=wrap;html=1;" vertex="1" parent="KJ-lzjBJcKyRDd2qdMHR-21">
          <mxGeometry x="29.166666666666668" width="41.66666666666667" height="21.538461538461537" as="geometry" />
        </mxCell>
        <mxCell id="KJ-lzjBJcKyRDd2qdMHR-23" value="Leaf" style="whiteSpace=wrap;html=1;" vertex="1" parent="KJ-lzjBJcKyRDd2qdMHR-21">
          <mxGeometry y="48.46153846153847" width="41.66666666666667" height="21.538461538461537" as="geometry" />
        </mxCell>
        <mxCell id="KJ-lzjBJcKyRDd2qdMHR-24" value="" style="edgeStyle=elbowEdgeStyle;elbow=vertical;html=1;rounded=1;curved=0;sourcePerimeterSpacing=0;targetPerimeterSpacing=0;startSize=6;endSize=6;" edge="1" parent="KJ-lzjBJcKyRDd2qdMHR-21" source="KJ-lzjBJcKyRDd2qdMHR-22" target="KJ-lzjBJcKyRDd2qdMHR-23">
          <mxGeometry relative="1" as="geometry" />
        </mxCell>
        <mxCell id="KJ-lzjBJcKyRDd2qdMHR-25" value="Leaf" style="whiteSpace=wrap;html=1;" vertex="1" parent="KJ-lzjBJcKyRDd2qdMHR-21">
          <mxGeometry x="58.333333333333336" y="48.46153846153847" width="41.66666666666667" height="21.538461538461537" as="geometry" />
        </mxCell>
        <mxCell id="KJ-lzjBJcKyRDd2qdMHR-26" value="" style="edgeStyle=elbowEdgeStyle;elbow=vertical;html=1;rounded=1;curved=0;sourcePerimeterSpacing=0;targetPerimeterSpacing=0;startSize=6;endSize=6;" edge="1" parent="KJ-lzjBJcKyRDd2qdMHR-21" source="KJ-lzjBJcKyRDd2qdMHR-22" target="KJ-lzjBJcKyRDd2qdMHR-25">
          <mxGeometry relative="1" as="geometry" />
        </mxCell>
        <mxCell id="KJ-lzjBJcKyRDd2qdMHR-27" value="" style="group" vertex="1" connectable="0" parent="1">
          <mxGeometry x="1030" y="230" width="100" height="70" as="geometry" />
        </mxCell>
        <mxCell id="KJ-lzjBJcKyRDd2qdMHR-28" value="Root" style="whiteSpace=wrap;html=1;" vertex="1" parent="KJ-lzjBJcKyRDd2qdMHR-27">
          <mxGeometry x="29.166666666666668" width="41.66666666666667" height="21.538461538461537" as="geometry" />
        </mxCell>
        <mxCell id="KJ-lzjBJcKyRDd2qdMHR-29" value="Leaf" style="whiteSpace=wrap;html=1;" vertex="1" parent="KJ-lzjBJcKyRDd2qdMHR-27">
          <mxGeometry y="48.46153846153847" width="41.66666666666667" height="21.538461538461537" as="geometry" />
        </mxCell>
        <mxCell id="KJ-lzjBJcKyRDd2qdMHR-30" value="" style="edgeStyle=elbowEdgeStyle;elbow=vertical;html=1;rounded=1;curved=0;sourcePerimeterSpacing=0;targetPerimeterSpacing=0;startSize=6;endSize=6;" edge="1" parent="KJ-lzjBJcKyRDd2qdMHR-27" source="KJ-lzjBJcKyRDd2qdMHR-28" target="KJ-lzjBJcKyRDd2qdMHR-29">
          <mxGeometry relative="1" as="geometry" />
        </mxCell>
        <mxCell id="KJ-lzjBJcKyRDd2qdMHR-31" value="Leaf" style="whiteSpace=wrap;html=1;" vertex="1" parent="KJ-lzjBJcKyRDd2qdMHR-27">
          <mxGeometry x="58.333333333333336" y="48.46153846153847" width="41.66666666666667" height="21.538461538461537" as="geometry" />
        </mxCell>
        <mxCell id="KJ-lzjBJcKyRDd2qdMHR-32" value="" style="edgeStyle=elbowEdgeStyle;elbow=vertical;html=1;rounded=1;curved=0;sourcePerimeterSpacing=0;targetPerimeterSpacing=0;startSize=6;endSize=6;" edge="1" parent="KJ-lzjBJcKyRDd2qdMHR-27" source="KJ-lzjBJcKyRDd2qdMHR-28" target="KJ-lzjBJcKyRDd2qdMHR-31">
          <mxGeometry relative="1" as="geometry" />
        </mxCell>
        <mxCell id="KJ-lzjBJcKyRDd2qdMHR-33" value="" style="group" vertex="1" connectable="0" parent="1">
          <mxGeometry x="1160" y="230" width="100" height="70" as="geometry" />
        </mxCell>
        <mxCell id="KJ-lzjBJcKyRDd2qdMHR-34" value="Root" style="whiteSpace=wrap;html=1;" vertex="1" parent="KJ-lzjBJcKyRDd2qdMHR-33">
          <mxGeometry x="29.166666666666668" width="41.66666666666667" height="21.538461538461537" as="geometry" />
        </mxCell>
        <mxCell id="KJ-lzjBJcKyRDd2qdMHR-35" value="Leaf" style="whiteSpace=wrap;html=1;" vertex="1" parent="KJ-lzjBJcKyRDd2qdMHR-33">
          <mxGeometry y="48.46153846153847" width="41.66666666666667" height="21.538461538461537" as="geometry" />
        </mxCell>
        <mxCell id="KJ-lzjBJcKyRDd2qdMHR-36" value="" style="edgeStyle=elbowEdgeStyle;elbow=vertical;html=1;rounded=1;curved=0;sourcePerimeterSpacing=0;targetPerimeterSpacing=0;startSize=6;endSize=6;" edge="1" parent="KJ-lzjBJcKyRDd2qdMHR-33" source="KJ-lzjBJcKyRDd2qdMHR-34" target="KJ-lzjBJcKyRDd2qdMHR-35">
          <mxGeometry relative="1" as="geometry" />
        </mxCell>
        <mxCell id="KJ-lzjBJcKyRDd2qdMHR-37" value="Leaf" style="whiteSpace=wrap;html=1;" vertex="1" parent="KJ-lzjBJcKyRDd2qdMHR-33">
          <mxGeometry x="58.333333333333336" y="48.46153846153847" width="41.66666666666667" height="21.538461538461537" as="geometry" />
        </mxCell>
        <mxCell id="KJ-lzjBJcKyRDd2qdMHR-38" value="" style="edgeStyle=elbowEdgeStyle;elbow=vertical;html=1;rounded=1;curved=0;sourcePerimeterSpacing=0;targetPerimeterSpacing=0;startSize=6;endSize=6;" edge="1" parent="KJ-lzjBJcKyRDd2qdMHR-33" source="KJ-lzjBJcKyRDd2qdMHR-34" target="KJ-lzjBJcKyRDd2qdMHR-37">
          <mxGeometry relative="1" as="geometry" />
        </mxCell>
        <mxCell id="KJ-lzjBJcKyRDd2qdMHR-39" value="Ensemble Learning Model" style="rounded=1;whiteSpace=wrap;html=1;" vertex="1" parent="1">
          <mxGeometry x="660" y="450" width="200" height="60" as="geometry" />
        </mxCell>
      </root>
    </mxGraphModel>
  </diagram>
</mxfile>
